<svg width="25" height="24" viewBox="0 0 25 24" fill="none" xmlns="http://www.w3.org/2000/svg">
<path d="M22.0644 6.54867C21.9755 6.20372 21.8058 5.88486 21.5694 5.6184C21.3329 5.35195 21.0365 5.14554 20.7046 5.01621C17.4918 3.78162 12.3753 3.79192 12.0959 3.79339C11.8168 3.79114 6.70015 3.78157 3.48733 5.01621C3.15542 5.14554 2.85902 5.35193 2.62258 5.61837C2.38614 5.8848 2.21645 6.20364 2.1275 6.54858C1.88498 7.47957 1.59595 9.18195 1.59595 12.0052C1.59595 14.8283 1.88498 16.5307 2.12746 17.4617C2.21639 17.8066 2.38607 18.1255 2.62251 18.3919C2.85895 18.6584 3.15536 18.8648 3.48729 18.9941C6.56287 20.176 11.3831 20.2171 12.0342 20.2171C12.0924 20.2172 12.0995 20.2172 12.1577 20.2171C12.8093 20.2171 17.6292 20.1759 20.7046 18.9941C21.0365 18.8648 21.3329 18.6584 21.5693 18.392C21.8058 18.1255 21.9754 17.8067 22.0644 17.4618C22.3069 16.5308 22.5959 14.8284 22.5959 12.0052C22.5959 9.182 22.3069 7.47962 22.0644 6.54867ZM15.304 12.3172L10.804 15.3172C10.7475 15.3548 10.6818 15.3765 10.614 15.3797C10.5463 15.383 10.4788 15.3678 10.419 15.3358C10.3591 15.3038 10.3091 15.2561 10.2742 15.1979C10.2394 15.1396 10.2209 15.073 10.2209 15.0052V9.00516C10.2209 8.93729 10.2394 8.87068 10.2742 8.81245C10.3091 8.75422 10.3591 8.70654 10.419 8.67452C10.4788 8.64249 10.5463 8.6273 10.614 8.63059C10.6818 8.63387 10.7475 8.65549 10.804 8.69315L15.304 11.6932C15.3553 11.7274 15.3974 11.7738 15.4266 11.8282C15.4557 11.8826 15.4709 11.9434 15.4709 12.0052C15.4709 12.0669 15.4557 12.1277 15.4266 12.1821C15.3974 12.2365 15.3553 12.2829 15.304 12.3172Z" fill="white"/>
</svg>
