<svg width="25" height="24" viewBox="0 0 25 24" fill="none" xmlns="http://www.w3.org/2000/svg">
<g clip-path="url(#clip0_2479_1384)">
<path d="M12.1304 3.00531C14.5757 3.00531 14.8808 3.01431 15.8402 3.05931C16.7987 3.10431 17.4512 3.25461 18.0254 3.47781C18.6194 3.70641 19.1198 4.01601 19.6202 4.51551C20.0778 4.96542 20.4319 5.50964 20.6579 6.11031C20.8802 6.68361 21.0314 7.33701 21.0764 8.29551C21.1187 9.25491 21.1304 9.56001 21.1304 12.0053C21.1304 14.4506 21.1214 14.7557 21.0764 15.7151C21.0314 16.6736 20.8802 17.3261 20.6579 17.9003C20.4326 18.5013 20.0784 19.0457 19.6202 19.4951C19.1701 19.9526 18.6259 20.3067 18.0254 20.5328C17.4521 20.7551 16.7987 20.9063 15.8402 20.9513C14.8808 20.9936 14.5757 21.0053 12.1304 21.0053C9.68507 21.0053 9.37997 20.9963 8.42057 20.9513C7.46207 20.9063 6.80957 20.7551 6.23537 20.5328C5.63446 20.3073 5.09015 19.9532 4.64057 19.4951C4.18284 19.0453 3.82871 18.501 3.60287 17.9003C3.37967 17.327 3.22937 16.6736 3.18437 15.7151C3.14207 14.7557 3.13037 14.4506 3.13037 12.0053C3.13037 9.56001 3.13937 9.25491 3.18437 8.29551C3.22937 7.33611 3.37967 6.68451 3.60287 6.11031C3.82808 5.50927 4.18229 4.9649 4.64057 4.51551C5.09027 4.05762 5.63456 3.70347 6.23537 3.47781C6.80957 3.25461 7.46117 3.10431 8.42057 3.05931C9.37997 3.01701 9.68507 3.00531 12.1304 3.00531ZM12.1304 7.50531C10.9369 7.50531 9.7923 7.97942 8.94839 8.82333C8.10448 9.66724 7.63037 10.8118 7.63037 12.0053C7.63037 13.1988 8.10448 14.3434 8.94839 15.1873C9.7923 16.0312 10.9369 16.5053 12.1304 16.5053C13.3238 16.5053 14.4684 16.0312 15.3124 15.1873C16.1563 14.3434 16.6304 13.1988 16.6304 12.0053C16.6304 10.8118 16.1563 9.66724 15.3124 8.82333C14.4684 7.97942 13.3238 7.50531 12.1304 7.50531ZM17.9804 7.28031C17.9804 6.98194 17.8618 6.69579 17.6509 6.48481C17.4399 6.27384 17.1537 6.15531 16.8554 6.15531C16.557 6.15531 16.2709 6.27384 16.0599 6.48481C15.8489 6.69579 15.7304 6.98194 15.7304 7.28031C15.7304 7.57868 15.8489 7.86483 16.0599 8.07581C16.2709 8.28678 16.557 8.40531 16.8554 8.40531C17.1537 8.40531 17.4399 8.28678 17.6509 8.07581C17.8618 7.86483 17.9804 7.57868 17.9804 7.28031ZM12.1304 9.30531C12.8465 9.30531 13.5332 9.58977 14.0396 10.0961C14.5459 10.6025 14.8304 11.2892 14.8304 12.0053C14.8304 12.7214 14.5459 13.4082 14.0396 13.9145C13.5332 14.4208 12.8465 14.7053 12.1304 14.7053C11.4143 14.7053 10.7275 14.4208 10.2212 13.9145C9.71483 13.4082 9.43037 12.7214 9.43037 12.0053C9.43037 11.2892 9.71483 10.6025 10.2212 10.0961C10.7275 9.58977 11.4143 9.30531 12.1304 9.30531Z" fill="white"/>
</g>
<defs>
<clipPath id="clip0_2479_1384">
<rect width="24" height="24" fill="white" transform="translate(0.130371 0.00531006)"/>
</clipPath>
</defs>
</svg>
