<?xml version="1.0" encoding="utf-8"?>
<!-- Generator: Adobe Illustrator 24.3.0, SVG Export Plug-In . SVG Version: 6.00 Build 0)  -->
<svg version="1.1" id="Camada_1" xmlns="http://www.w3.org/2000/svg" xmlns:xlink="http://www.w3.org/1999/xlink" x="0px" y="0px"
	 viewBox="0 0 250 93.6" style="enable-background:new 0 0 250 93.6;" xml:space="preserve">
<style type="text/css">
	.st0{fill:none;}
	.st1{fill:#F71963;}
</style>
<g>
	<path class="st0" d="M62.8,29.7H30.3c-0.4,0-0.9,0-1.7,0.4c-1.7,0.9-2.2,3-1.3,4.3l16,30.8c0.4,0.4,0.9,0.9,1.3,1.3
		c1.7,0.9,3.5,0.4,4.3-1.3l16.5-30.8c0.4-0.4,0.4-0.9,0.4-1.7C66.3,31,65,29.7,62.8,29.7z"/>
	<path class="st1" d="M180.3,30.1h-25.1l0,0c-0.4,0-0.9,0.4-0.9,0.9v5.2l0,0c0,0.4,0.4,0.9,0.9,0.9h8.2v28.2c0,0.4,0.4,0.9,0.9,0.9
		h6.5c0.4,0,0.9-0.4,0.9-0.9V37.1h8.2c0.4,0,0.9-0.4,0.9-0.9V31C181.6,30.6,181.1,30.1,180.3,30.1z"/>
	<path class="st1" d="M207.2,30.1c-1.7-0.4-4.3-0.4-10-0.4c-6.5,0-11.7,1.7-11.7,10.4v16c0,8.7,5.6,10.4,11.7,10.4
		c5.2,0,8.2-0.4,10-0.4c0.9,0,0.9-0.4,0.9-0.9v-4.3c0-0.4-0.4-0.9-0.9-0.9h-10.4c-2.2,0-3-0.9-3-3.5v-5.2h13c0.4,0,0.9-0.4,0.9-0.9
		v-4.8c0-0.4-0.4-0.9-0.9-0.9h-13v-4.3c0-2.6,0.9-3.5,3-3.5h10.4c0.4,0,0.9-0.4,0.9-0.9v-4.3C208,30.6,207.6,30.6,207.2,30.1z"/>
	<path class="st1" d="M244.4,65.3l-11.3-17.3L244,31c0,0,0,0,0-0.4c0-0.4-0.4-0.9-0.9-0.4h-7.4c-0.4,0-0.9,0.4-1.3,0.9l-6.1,10
		l-6.1-10c-0.4-0.4-0.9-0.9-1.3-0.9h-7.8c-0.4,0-0.9,0.4-0.9,0.4s0,0,0,0.4l10.8,16.9l-10.4,17.8v0.4c0,0.4,0.4,0.4,0.9,0.4h7.4
		c0.4,0,0.9-0.4,1.3-0.9l6.1-10.4l6.9,10.8c0.4,0.4,0.4,0.9,1.3,0.9h7.8c0.4,0,0.4,0,0.4-0.4C244.4,65.7,244.4,65.7,244.4,65.3z"/>
	<path class="st1" d="M149.9,30.1L149.9,30.1H143c-0.4,0-0.9,0.4-0.9,0.4l-6.9,26c0,0.4-0.4,0.9-0.9,0.9c-0.4,0-0.4,0-0.9-0.9
		l-6.9-26c0-0.4-0.4-0.4-0.9-0.4h-6.9c-0.4,0-0.9,0.4-0.9,0.9l0,0c0,0,8.7,29.9,8.7,30.3c1.3,3.5,3.9,5.2,7.4,5.2s6.5-1.7,7.4-5.2
		c0-0.4,8.7-30.3,8.7-30.3C150.4,30.6,150.4,30.6,149.9,30.1z"/>
	<path class="st1" d="M99.6,3.7H23.8c-6.1,0-9.5,6.1-6.9,11.3l7.4,14.3H10.3c-2.6,0-5.2,2.2-5.2,5.2c0,0.9,0,1.7,0.4,2.2l24.3,46
		c1.3,2.6,4.3,3.5,6.9,2.2c0.9-0.4,1.7-1.3,2.2-2.2L45.4,70l8.2,15.6c3,5.6,10.8,5.6,13.9,0l38.2-71.5
		C109.2,10.2,105.7,3.7,99.6,3.7z M65.8,34.5L49.3,65.3c-0.9,1.7-3,2.2-4.3,1.3c-0.4-0.4-0.9-0.9-1.3-1.3l-16-30.8
		c-0.9-1.7-0.4-3.5,1.3-4.3c0.4-0.4,0.9-0.4,1.7-0.4h32.5c1.7,0,3.5,1.3,3.5,3.5C66.3,33.6,66.3,34,65.8,34.5z"/>
</g>
</svg>
